<?xml version="1.0" standalone="no"?>
<!DOCTYPE svg PUBLIC "-//W3C//DTD SVG 20010904//EN"
 "http://www.w3.org/TR/2001/REC-SVG-20010904/DTD/svg10.dtd">
<svg version="1.0" xmlns="http://www.w3.org/2000/svg"
 width="400.000000pt" height="426.000000pt" viewBox="0 0 400.000000 426.000000"
 preserveAspectRatio="xMidYMid meet">

<g transform="translate(0.000000,426.000000) scale(0.100000,-0.100000)"
fill="#000000" stroke="none">
<path d="M1660 4253 c-213 -33 -412 -141 -535 -290 -220 -267 -242 -631 -55
-916 231 -353 696 -474 1085 -283 417 205 569 706 334 1103 -46 78 -190 220
-269 267 -141 83 -302 127 -454 125 -44 -1 -92 -3 -106 -6z"/>
<path d="M1642 2440 c-726 -73 -1326 -761 -1487 -1705 -26 -154 -48 -430 -43
-540 l3 -70 882 -3 882 -2 -56 77 c-110 154 -195 356 -229 545 -23 126 -23
345 0 463 92 475 391 836 844 1021 21 9 19 12 -40 45 -228 131 -508 193 -756
169z"/>
<path d="M2719 2041 c-27 -27 -29 -35 -29 -101 0 -113 -9 -124 -159 -184 -99
-40 -132 -36 -194 23 -60 57 -97 74 -129 62 -13 -5 -56 -43 -95 -84 -90 -93
-92 -108 -24 -180 86 -93 89 -119 28 -256 -51 -115 -74 -131 -183 -131 -61 0
-73 -3 -92 -23 -20 -21 -22 -34 -22 -133 0 -141 7 -150 125 -156 110 -6 124
-17 174 -136 58 -138 56 -157 -30 -249 -69 -73 -67 -87 30 -186 69 -71 83 -81
115 -81 29 0 45 10 95 57 52 49 65 57 99 57 35 0 111 -26 200 -67 45 -21 55
-45 62 -142 6 -75 9 -86 34 -107 25 -22 36 -24 132 -24 98 0 107 2 129 25 22
21 25 33 25 98 0 105 18 129 135 178 56 24 106 38 133 39 39 0 49 -6 100 -53
31 -30 65 -57 75 -60 31 -11 79 18 145 86 83 88 84 113 8 196 -72 79 -75 98
-32 206 20 48 43 99 52 112 22 35 73 53 148 53 48 0 70 5 87 19 23 18 24 25
24 136 0 111 -1 118 -24 136 -17 14 -39 19 -80 19 -75 0 -126 15 -150 45 -10
14 -35 66 -55 116 -45 113 -43 131 30 210 76 83 75 109 -8 196 -71 74 -109 97
-141 87 -12 -3 -48 -31 -79 -60 -51 -48 -61 -54 -100 -54 -29 0 -76 13 -134
38 -116 49 -134 74 -134 179 0 65 -3 77 -25 98 -23 23 -31 25 -130 25 -104 0
-107 -1 -136 -29z m294 -643 c79 -37 160 -116 200 -197 30 -61 32 -73 32 -166
0 -93 -2 -105 -33 -167 -43 -88 -106 -152 -190 -191 -62 -30 -75 -32 -172 -32
-95 0 -111 3 -162 28 -164 81 -254 247 -226 422 23 148 118 263 261 316 77 29
212 22 290 -13z"/>
</g>
</svg>
